HIERARCHY
ROOT Hip
{
	OFFSET	0.0000	0.0000	0.0000
	CHANNELS 6 Xposition Yposition Zposition Xrotation Yrotation Zrotation
	JOINT LowerSpine
	{
		OFFSET	0.0000	8.3453	-5.1292
		CHANNELS 3 Xrotation Yrotation Zrotation
		JOINT MiddleSpine
		{
			OFFSET	10.8569	0.0000	0.0000
			CHANNELS 3 Xrotation Yrotation Zrotation
			JOINT Chest
			{
				OFFSET	15.2984	0.0000	0.0000
				CHANNELS 3 Xrotation Yrotation Zrotation
				JOINT Neck
				{
					OFFSET	25.6618	-0.5986	0.0000
					CHANNELS 3 Xrotation Yrotation Zrotation
					JOINT Head
					{
						OFFSET	8.8829	0.0000	0.0000
						CHANNELS 3 Xrotation Yrotation Zrotation
						End Site
						{
							OFFSET	19.7399	0.0000	0.0000
						}
					}
				}
				JOINT RClavicle
				{
					OFFSET	23.6878	0.0000	3.1584
					CHANNELS 3 Xrotation Yrotation Zrotation
					JOINT RShoulder
					{
						OFFSET	-15.5945	-3.9480	0.9870
						CHANNELS 3 Xrotation Yrotation Zrotation
						JOINT RForearm
						{
							OFFSET	-31.3370	0.0000	0.1974
							CHANNELS 3 Xrotation Yrotation Zrotation
							JOINT RHand
							{
								OFFSET	-26.4021	0.0000	0.0000
								CHANNELS 3 Xrotation Yrotation Zrotation
								End Site
								{
									OFFSET	-15.7919	-0.9870	0.0000
								}
							}
						}
					}
				}
				JOINT LClavicle
				{
					OFFSET	23.6878	0.0000	-3.1584
					CHANNELS 3 Xrotation Yrotation Zrotation
					JOINT LShoulder
					{
						OFFSET	-15.5945	-3.9480	-0.9870
						CHANNELS 3 Xrotation Yrotation Zrotation
						JOINT LForearm
						{
							OFFSET	-31.3370	0.0000	-0.1974
							CHANNELS 3 Xrotation Yrotation Zrotation
							JOINT LHand
							{
								OFFSET	-26.4021	0.0000	0.0000
								CHANNELS 3 Xrotation Yrotation Zrotation
								End Site
								{
									OFFSET	-15.7919	-0.9870	0.0000
								}
							}
						}
					}
				}
			}
		}
	}
	JOINT RThigh
	{
		OFFSET	-8.8829	0.4481	0.0000
		CHANNELS 3 Xrotation Yrotation Zrotation
		JOINT RShin
		{
			OFFSET	43.1316	0.0000	-0.4935
			CHANNELS 3 Xrotation Yrotation Zrotation
			JOINT RFoot
			{
				OFFSET	0.0000	-44.7256	-0.4047
				CHANNELS 3 Xrotation Yrotation Zrotation
				JOINT RToe
				{
					OFFSET	0.0000	-3.9332	12.1953
					CHANNELS 3 Xrotation Yrotation Zrotation
					End Site
					{
						OFFSET	6.7725	0.0000	0.0000
					}
				}
			}
		}
	}
	JOINT LThigh
	{
		OFFSET	8.8829	0.4481	0.0000
		CHANNELS 3 Xrotation Yrotation Zrotation
		JOINT LShin
		{
			OFFSET	43.1316	0.0000	0.4935
			CHANNELS 3 Xrotation Yrotation Zrotation
			JOINT LFoot
			{
				OFFSET	0.0000	-44.7256	0.4047
				CHANNELS 3 Xrotation Yrotation Zrotation
				JOINT LToe
				{
					OFFSET	0.0000	-3.9332	-12.1953
					CHANNELS 3 Xrotation Yrotation Zrotation
					End Site
					{
						OFFSET	6.7725	0.0000	0.0000
					}
				}
			}
		}
	}
}
MOTION
Frames:	16
Frame Time: 0.0169491000
	6.2874	92.7780	-10.4138	22.639460	-0.168309	0.227653	-89.999990	-90.000000	0.000000	-0.102066	-0.095450	0.126390	-0.334664	-0.311789	0.426835	0.000000	0.000000	0.000000	0.000000	0.000000	0.000000	89.996240	-0.106507	-88.568330	-19.414750	11.257290	5.856986	0.682134	9.057950	-5.936759	0.000000	0.000000	0.000000	-89.995480	0.150347	-87.978830	-18.242440	7.039364	1.304043	-0.646402	-8.718272	-5.931244	0.000000	0.000000	0.000000	-43.746970	87.284260	-73.428950	89.926460	8.183925	89.996880	-6.100226	0.650452	0.176433	179.999900	90.000000	0.000000	177.605800	85.917820	58.484600	-89.822660	-19.356660	90.010180	6.263016	0.790446	-0.278922	180.000000	-90.000000	0.000000
	5.9927	92.6875	-10.3842	22.533030	-0.427239	0.010050	-89.999990	-90.000000	0.000000	-0.088690	-0.113872	0.094327	-0.294060	-0.379925	0.313952	0.000000	0.000000	0.000000	0.000000	0.000000	0.000000	89.995280	-0.169682	-87.719750	-19.082870	10.224000	5.274989	0.823092	10.391330	-5.960571	0.000000	0.000000	0.000000	-89.995220	0.180744	-87.570590	-19.132930	9.593361	2.742715	-0.779331	-9.978494	-5.952838	0.000000	0.000000	0.000000	-50.827180	86.850690	-66.319060	89.924480	8.403427	89.996950	-6.166185	0.518346	0.178763	180.000000	90.000000	0.000000	-176.735000	85.819360	50.816920	-89.784580	-23.190560	90.020090	6.096321	1.190005	-0.377555	180.000000	-90.000000	0.000000
	5.6659	92.5891	-10.4436	22.556900	-0.339188	-0.230380	-89.999990	-90.000000	0.000000	-0.064346	-0.135212	0.062651	-0.214448	-0.450724	0.208234	0.000000	0.000000	0.000000	0.000000	0.000000	0.000000	89.995220	-0.230130	-86.907840	-18.629590	8.142118	4.640441	1.085943	12.846480	-6.013522	0.000000	0.000000	0.000000	-89.995170	0.194582	-87.384720	-20.094300	11.009600	4.174493	-0.800650	-10.179740	-5.956569	0.000000	0.000000	0.000000	-54.079880	86.322140	-63.250030	89.921310	8.752346	89.997080	-6.435352	0.267664	0.160564	180.000000	90.000000	0.000000	-173.355600	85.757100	45.179910	-89.745630	-26.924920	90.032770	5.372996	1.383878	-0.361778	180.443000	-90.000000	0.000000
	5.3005	92.4789	-10.6145	22.642560	-0.132806	-0.415361	-89.999990	-90.000000	0.000000	-0.027912	-0.162169	0.038629	-0.094001	-0.540042	0.128417	0.000000	0.000000	0.000000	0.000000	0.000000	0.000000	89.995940	-0.286084	-86.156250	-18.118120	5.736856	4.155129	1.380025	15.536940	-6.085641	0.000000	0.000000	0.000000	-89.995180	0.188964	-87.460110	-21.112990	11.178460	5.714375	-0.656752	-8.816718	-5.932821	0.000000	0.000000	0.000000	-55.596080	85.776480	-62.358550	89.912320	9.745906	89.997510	-7.017496	-0.057703	0.047003	179.999700	90.000000	0.000000	-172.794300	85.723610	42.169790	-89.706650	-30.452430	90.047870	3.830189	1.784271	-0.496233	182.022000	-90.000000	0.000000
	4.7852	92.2982	-10.9590	22.741750	-0.154593	-0.615229	-89.999990	-90.000000	0.000000	0.019774	-0.198445	0.026289	0.064636	-0.660775	0.087837	0.000000	0.000000	0.000000	0.000000	0.000000	0.000000	89.997030	-0.330557	-85.558760	-17.540240	3.508252	4.095753	1.613702	17.626150	-6.152339	0.000000	0.000000	0.000000	-89.995320	0.166148	-87.766570	-22.032050	10.993320	7.057501	-0.436431	-6.710589	-5.903053	0.000000	0.000000	0.000000	-59.258300	85.165290	-60.311100	89.888050	12.401470	89.999460	-7.798843	-0.150952	-0.007967	179.998800	90.000000	0.000000	-172.431700	85.477960	38.958980	-89.662650	-34.172350	90.067600	1.887667	2.034348	-0.615995	183.793400	-90.000000	0.000000
	4.1298	92.0091	-11.3814	22.795700	-0.583025	-0.822583	-89.999990	-90.000000	0.000000	0.075978	-0.244796	0.025998	0.252372	-0.815308	0.087850	0.000000	0.000000	0.000000	0.000000	0.000000	0.000000	89.997780	-0.353414	-85.251560	-16.906330	1.667356	4.471797	1.726577	18.618500	-6.187450	0.000000	0.000000	0.000000	-89.995740	0.133085	-88.210670	-22.967980	11.275160	8.500616	-0.281581	-5.218932	-5.886960	0.000000	0.000000	0.000000	-64.776140	84.501060	-57.127930	89.850560	16.424430	90.004690	-8.576852	0.574613	0.341900	179.998200	90.000000	0.000000	-170.617000	84.922040	34.205590	-89.612790	-38.047660	90.093030	0.607829	1.663662	-0.521290	184.014300	-90.000000	0.000000
	3.5642	91.6427	-11.6497	22.733500	-1.202633	-0.892827	-89.999990	-90.000000	0.000000	0.136631	-0.297860	0.033872	0.455421	-0.992163	0.115535	0.000000	0.000000	0.000000	0.000000	0.000000	0.000000	89.997520	-0.345784	-85.354080	-16.297900	0.368719	5.075955	1.746266	18.790440	-6.193764	0.000000	0.000000	0.000000	-89.996440	0.098734	-88.672160	-24.214920	12.338850	10.625460	-0.307929	-5.473294	-5.889414	0.000000	0.000000	0.000000	-68.629480	83.987910	-55.308350	89.813250	20.299430	90.012500	-9.547435	1.835477	1.010177	179.998800	90.000000	0.000000	-170.589000	84.271300	31.661760	-89.558850	-41.848020	90.123810	0.024173	1.306304	-0.436300	183.139900	-90.000000	0.000000
	3.2175	91.2406	-11.7705	22.628970	-1.595542	-0.885493	-89.999990	-90.000000	0.000000	0.197588	-0.351074	0.043282	0.659736	-1.169238	0.148622	0.000000	0.000000	0.000000	0.000000	0.000000	0.000000	89.996320	-0.303880	-85.917110	-15.653520	-0.820785	5.850118	1.771979	19.014440	-6.202094	0.000000	0.000000	0.000000	-89.997230	0.070460	-89.052030	-25.663110	13.967130	13.183360	-0.489275	-7.217629	-5.909460	0.000000	0.000000	0.000000	-70.485920	83.746070	-54.911230	89.782380	23.386620	90.020850	-10.947380	2.721488	1.576795	179.999700	90.000000	0.000000	-174.122800	83.657860	32.970700	-89.499230	-45.602220	90.161190	-0.672566	1.385459	-0.482436	182.635200	-90.000000	0.000000
	2.9964	90.8329	-11.8998	22.574590	-1.572484	-0.971872	-89.999990	-90.000000	0.000000	0.255874	-0.397104	0.047894	0.855277	-1.322055	0.165649	0.000000	0.000000	0.000000	0.000000	0.000000	0.000000	89.995230	-0.230597	-86.901570	-14.828330	-2.461648	6.890862	1.848528	19.677710	-6.227453	0.000000	0.000000	0.000000	-89.997860	0.051734	-89.303730	-27.018650	15.236180	15.531510	-0.641645	-8.673002	-5.930523	0.000000	0.000000	0.000000	-72.025160	83.661000	-54.499080	89.757860	25.753030	90.028630	-12.549670	2.886641	1.835715	180.000000	90.000000	0.000000	-178.735100	83.088200	35.437490	-89.436240	-49.106720	90.203960	-1.874063	1.455085	-0.514814	183.041600	-90.000000	0.000000
	2.8122	90.4662	-12.0556	22.554160	-1.407706	-1.112332	-89.999990	-90.000000	0.000000	0.310223	-0.430380	0.044252	1.037613	-1.432234	0.154862	0.000000	0.000000	0.000000	0.000000	0.000000	0.000000	89.995690	-0.135385	-88.180430	-13.848060	-4.191161	8.389718	1.843864	19.637450	-6.225884	0.000000	0.000000	0.000000	-89.998200	0.042328	-89.430140	-28.250940	15.879940	17.494990	-0.722124	-9.437277	-5.943190	0.000000	0.000000	0.000000	-73.203520	83.542770	-54.062270	89.742100	27.231310	90.034160	-13.856820	2.816745	1.967078	180.000000	90.000000	0.000000	177.601400	82.580380	37.219420	-89.377100	-52.013610	90.246670	-3.494108	1.318687	-0.475045	184.397700	-90.000000	0.000000
	2.6983	90.2023	-12.2033	22.572140	-1.384300	-1.167953	-89.999990	-90.000000	0.000000	0.357928	-0.449080	0.033742	1.206139	-1.491635	0.116191	0.000000	0.000000	0.000000	0.000000	0.000000	0.000000	89.998580	-0.032306	-89.565510	-12.790430	-5.458510	10.279100	1.615412	17.641260	-6.152858	0.000000	0.000000	0.000000	-89.998280	0.040165	-89.459230	-29.456950	16.609230	19.352280	-0.857546	-10.715540	-5.966885	0.000000	0.000000	0.000000	-73.061840	83.360790	-54.699240	89.732280	28.135180	90.037800	-14.231100	2.829272	2.090762	179.989900	90.000000	0.000000	174.218300	82.112050	39.184590	-89.328820	-54.144260	90.283100	-5.121725	1.477761	-0.532216	186.052400	-90.000000	0.000000
	2.7064	90.0638	-12.3334	22.647890	-1.471800	-1.069028	-89.999990	-90.000000	0.000000	0.393708	-0.454973	0.021287	1.360392	-1.501477	0.056715	0.000000	0.000000	0.000000	0.000000	0.000000	0.000000	90.003540	0.064034	-90.861270	-11.761740	-6.370325	12.181820	1.214462	14.030140	-6.043393	0.000000	0.000000	0.000000	-89.998180	0.042984	-89.421360	-30.686590	17.356220	21.353420	-1.014022	-12.179050	-5.997942	0.000000	0.000000	0.000000	-72.231160	83.299350	-56.128240	89.721320	29.128830	90.042040	-13.687670	2.664638	2.016212	179.959500	90.000000	0.000000	170.037400	81.749230	42.525540	-89.299080	-55.357970	90.306140	-6.106122	2.676043	-0.927892	186.864100	-90.000000	0.000000
	2.7938	90.0364	-12.3975	22.698750	-1.597581	-0.852055	-89.999990	-90.000000	0.000000	0.460786	-0.439578	-0.013767	1.497196	-1.469615	-0.014565	0.000000	0.000000	0.000000	0.000000	0.000000	0.000000	90.009240	0.142966	-91.924200	-10.798910	-7.038975	13.981530	0.801229	10.185230	-5.956668	0.000000	0.000000	0.000000	-89.997920	0.049867	-89.328840	-31.922980	17.579250	23.497690	-1.077116	-12.764720	-6.011568	0.000000	0.000000	0.000000	-70.038950	83.256290	-58.835760	89.711640	29.991360	90.045940	-13.175470	2.583808	1.961271	179.938500	90.000000	0.000000	165.745200	81.580440	46.615670	-89.290760	-55.685780	90.312670	-5.991152	4.593043	-1.523518	186.215500	-90.000000	0.000000
	2.8456	90.1244	-12.3712	22.670940	-1.669749	-0.681571	-89.999990	-90.000000	0.000000	0.478426	-0.430462	-0.025046	1.610573	-1.409148	-0.087616	0.000000	0.000000	0.000000	0.000000	0.000000	0.000000	90.014320	0.200502	-92.699970	-9.756905	-7.573772	15.936840	0.548852	7.787951	-5.917236	0.000000	0.000000	0.000000	-89.997510	0.061838	-89.167930	-33.064990	17.628890	25.479540	-1.136042	-13.309240	-6.024861	0.000000	0.000000	0.000000	-65.570850	82.898190	-63.273350	89.712010	29.957420	90.045780	-13.106770	3.076915	2.285249	179.958100	90.000000	0.000000	162.799100	81.558900	49.757340	-89.294590	-55.536280	90.309660	-5.135383	5.842418	-1.904805	184.354700	-90.000000	0.000000
	2.8182	90.3432	-12.3021	22.597100	-1.643685	-0.657525	-89.999990	-90.000000	0.000000	0.518343	-0.395238	-0.056456	1.694368	-1.337837	-0.148689	0.000000	0.000000	0.000000	0.000000	0.000000	0.000000	90.018140	0.238775	-93.216620	-8.578992	-8.238964	18.153660	0.531379	7.620854	-5.914894	0.000000	0.000000	0.000000	-89.996940	0.080246	-88.920620	-34.010100	18.020120	26.994610	-1.304672	-14.853720	-6.065893	0.000000	0.000000	0.000000	-63.136210	82.596820	-64.929460	89.726570	28.654300	90.039990	-12.922070	3.551259	2.540167	179.988300	90.000000	0.000000	161.634600	81.621510	51.248680	-89.301290	-55.270450	90.304410	-4.324471	5.866004	-1.929384	182.337000	-90.000000	0.000000
	2.7970	90.6547	-12.2562	22.535470	-1.616904	-0.680204	-89.999990	-90.000000	0.000000	0.526001	-0.385222	-0.061044	1.745820	-1.274934	-0.179470	0.000000	0.000000	0.000000	0.000000	0.000000	0.000000	90.020670	0.262390	-93.535630	-7.342244	-9.210669	20.274230	0.710438	9.326544	-5.941282	0.000000	0.000000	0.000000	-89.996300	0.104641	-88.592880	-34.875470	18.618160	28.302990	-1.536455	-16.940560	-6.129392	0.000000	0.000000	0.000000	-65.296710	82.944020	-61.496140	89.750720	26.427100	90.031100	-12.441500	3.362100	2.276784	179.997500	90.000000	0.000000	161.429500	81.781990	51.848350	-89.310620	-54.896030	90.297150	-3.688576	4.939878	-1.650005	181.095300	-90.000000	0.000000
